<svg width="147" height="150" viewBox="0 0 147 150" fill="none" xmlns="http://www.w3.org/2000/svg">
<mask id="mask0_241_821" style="mask-type:luminance" maskUnits="userSpaceOnUse" x="41" y="43" width="27" height="27">
<path d="M41.1377 43.3813H67.1914V69.439H41.1377V43.3813Z" fill="white"/>
</mask>
<g mask="url(#mask0_241_821)">
<mask id="mask1_241_821" style="mask-type:luminance" maskUnits="userSpaceOnUse" x="41" y="43" width="27" height="27">
<path d="M54.1625 43.3813C46.967 43.3813 41.1377 49.2147 41.1377 56.4102C41.1377 63.6057 46.967 69.439 54.1625 69.439C61.358 69.439 67.1914 63.6057 67.1914 56.4102C67.1914 49.2147 61.358 43.3813 54.1625 43.3813Z" fill="white"/>
</mask>
<g mask="url(#mask1_241_821)">
<path d="M41.1377 43.3813H67.1914V69.439H41.1377V43.3813Z" fill="#6D6D6D" fill-opacity="0.8"/>
</g>
</g>
<mask id="mask2_241_821" style="mask-type:luminance" maskUnits="userSpaceOnUse" x="78" y="43" width="27" height="27">
<path d="M78.3452 43.3813H104.403V69.439H78.3452V43.3813Z" fill="white"/>
</mask>
<g mask="url(#mask2_241_821)">
<mask id="mask3_241_821" style="mask-type:luminance" maskUnits="userSpaceOnUse" x="78" y="43" width="27" height="27">
<path d="M91.3741 43.3813C84.1785 43.3813 78.3452 49.2147 78.3452 56.4102C78.3452 63.6057 84.1785 69.439 91.3741 69.439C98.5696 69.439 104.403 63.6057 104.403 56.4102C104.403 49.2147 98.5696 43.3813 91.3741 43.3813Z" fill="white"/>
</mask>
<g mask="url(#mask3_241_821)">
<path d="M78.3452 43.3813H104.403V69.439H78.3452V43.3813Z" fill="#6D6D6D" fill-opacity="0.8"/>
</g>
</g>
<mask id="mask4_241_821" style="mask-type:luminance" maskUnits="userSpaceOnUse" x="41" y="80" width="27" height="27">
<path d="M41.1377 80.3047H67.1914V106.362H41.1377V80.3047Z" fill="white"/>
</mask>
<g mask="url(#mask4_241_821)">
<mask id="mask5_241_821" style="mask-type:luminance" maskUnits="userSpaceOnUse" x="41" y="80" width="27" height="27">
<path d="M54.1625 80.3047C46.967 80.3047 41.1377 86.138 41.1377 93.3335C41.1377 100.529 46.967 106.362 54.1625 106.362C61.358 106.362 67.1914 100.529 67.1914 93.3335C67.1914 86.138 61.358 80.3047 54.1625 80.3047Z" fill="white"/>
</mask>
<g mask="url(#mask5_241_821)">
<path d="M41.1377 80.3047H67.1914V106.362H41.1377V80.3047Z" fill="#6D6D6D" fill-opacity="0.8"/>
</g>
</g>
<mask id="mask6_241_821" style="mask-type:luminance" maskUnits="userSpaceOnUse" x="78" y="80" width="27" height="27">
<path d="M78.3452 80.3047H104.403V106.362H78.3452V80.3047Z" fill="white"/>
</mask>
<g mask="url(#mask6_241_821)">
<mask id="mask7_241_821" style="mask-type:luminance" maskUnits="userSpaceOnUse" x="78" y="80" width="27" height="27">
<path d="M91.3741 80.3047C84.1785 80.3047 78.3452 86.138 78.3452 93.3335C78.3452 100.529 84.1785 106.362 91.3741 106.362C98.5696 106.362 104.403 100.529 104.403 93.3335C104.403 86.138 98.5696 80.3047 91.3741 80.3047Z" fill="white"/>
</mask>
<g mask="url(#mask7_241_821)">
<path d="M78.3452 80.3047H104.403V106.362H78.3452V80.3047Z" fill="#6D6D6D" fill-opacity="0.8"/>
</g>
</g>
<mask id="mask8_241_821" style="mask-type:luminance" maskUnits="userSpaceOnUse" x="14" y="17" width="17" height="16">
<path d="M14.7837 17.0391H30.3646V32.62H14.7837V17.0391Z" fill="white"/>
</mask>
<g mask="url(#mask8_241_821)">
<mask id="mask9_241_821" style="mask-type:luminance" maskUnits="userSpaceOnUse" x="14" y="17" width="17" height="16">
<path d="M22.5762 17.0391C18.2733 17.0391 14.7837 20.5286 14.7837 24.8315C14.7837 29.1344 18.2733 32.62 22.5762 32.62C26.879 32.62 30.3646 29.1344 30.3646 24.8315C30.3646 20.5286 26.879 17.0391 22.5762 17.0391Z" fill="white"/>
</mask>
<g mask="url(#mask9_241_821)">
<path d="M14.7837 17.0391H30.3646V32.62H14.7837V17.0391Z" fill="#6D6D6D" fill-opacity="0.8"/>
</g>
</g>
<mask id="mask10_241_821" style="mask-type:luminance" maskUnits="userSpaceOnUse" x="14" y="51" width="17" height="16">
<path d="M14.7837 51.29H30.3646V66.875H14.7837V51.29Z" fill="white"/>
</mask>
<g mask="url(#mask10_241_821)">
<mask id="mask11_241_821" style="mask-type:luminance" maskUnits="userSpaceOnUse" x="14" y="51" width="17" height="16">
<path d="M22.5762 51.29C18.2733 51.29 14.7837 54.7796 14.7837 59.0825C14.7837 63.3854 18.2733 66.875 22.5762 66.875C26.879 66.875 30.3646 63.3854 30.3646 59.0825C30.3646 54.7796 26.879 51.29 22.5762 51.29Z" fill="white"/>
</mask>
<g mask="url(#mask11_241_821)">
<path d="M14.7837 51.29H30.3646V66.875H14.7837V51.29Z" fill="#6D6D6D" fill-opacity="0.8"/>
</g>
</g>
<mask id="mask12_241_821" style="mask-type:luminance" maskUnits="userSpaceOnUse" x="14" y="84" width="17" height="16">
<path d="M14.7837 84.0146H30.3646V99.5956H14.7837V84.0146Z" fill="white"/>
</mask>
<g mask="url(#mask12_241_821)">
<mask id="mask13_241_821" style="mask-type:luminance" maskUnits="userSpaceOnUse" x="14" y="84" width="17" height="16">
<path d="M22.5762 84.0146C18.2733 84.0146 14.7837 87.5042 14.7837 91.8031C14.7837 96.106 18.2733 99.5956 22.5762 99.5956C26.879 99.5956 30.3646 96.106 30.3646 91.8031C30.3646 87.5042 26.879 84.0146 22.5762 84.0146Z" fill="white"/>
</mask>
<g mask="url(#mask13_241_821)">
<path d="M14.7837 84.0146H30.3646V99.5956H14.7837V84.0146Z" fill="#6D6D6D" fill-opacity="0.8"/>
</g>
</g>
<mask id="mask14_241_821" style="mask-type:luminance" maskUnits="userSpaceOnUse" x="14" y="116" width="17" height="17">
<path d="M14.7837 116.462H30.3646V132.043H14.7837V116.462Z" fill="white"/>
</mask>
<g mask="url(#mask14_241_821)">
<mask id="mask15_241_821" style="mask-type:luminance" maskUnits="userSpaceOnUse" x="14" y="116" width="17" height="17">
<path d="M22.5762 116.462C18.2733 116.462 14.7837 119.952 14.7837 124.255C14.7837 128.558 18.2733 132.043 22.5762 132.043C26.879 132.043 30.3646 128.558 30.3646 124.255C30.3646 119.952 26.879 116.462 22.5762 116.462Z" fill="white"/>
</mask>
<g mask="url(#mask15_241_821)">
<path d="M14.7837 116.462H30.3646V132.043H14.7837V116.462Z" fill="#6D6D6D" fill-opacity="0.8"/>
</g>
</g>
<mask id="mask16_241_821" style="mask-type:luminance" maskUnits="userSpaceOnUse" x="48" y="116" width="16" height="17">
<path d="M48.3013 116.462H63.8822V132.043H48.3013V116.462Z" fill="white"/>
</mask>
<g mask="url(#mask16_241_821)">
<mask id="mask17_241_821" style="mask-type:luminance" maskUnits="userSpaceOnUse" x="48" y="116" width="16" height="17">
<path d="M56.0897 116.462C51.7868 116.462 48.3013 119.952 48.3013 124.255C48.3013 128.558 51.7868 132.043 56.0897 132.043C60.3926 132.043 63.8822 128.558 63.8822 124.255C63.8822 119.952 60.3926 116.462 56.0897 116.462Z" fill="white"/>
</mask>
<g mask="url(#mask17_241_821)">
<path d="M48.3013 116.462H63.8822V132.043H48.3013V116.462Z" fill="#6D6D6D" fill-opacity="0.8"/>
</g>
</g>
<mask id="mask18_241_821" style="mask-type:luminance" maskUnits="userSpaceOnUse" x="81" y="116" width="17" height="17">
<path d="M81.4824 116.462H97.0634V132.043H81.4824V116.462Z" fill="white"/>
</mask>
<g mask="url(#mask18_241_821)">
<mask id="mask19_241_821" style="mask-type:luminance" maskUnits="userSpaceOnUse" x="81" y="116" width="17" height="17">
<path d="M89.2709 116.462C84.968 116.462 81.4824 119.952 81.4824 124.255C81.4824 128.558 84.968 132.043 89.2709 132.043C93.5738 132.043 97.0634 128.558 97.0634 124.255C97.0634 119.952 93.5738 116.462 89.2709 116.462Z" fill="white"/>
</mask>
<g mask="url(#mask19_241_821)">
<path d="M81.4824 116.462H97.0634V132.043H81.4824V116.462Z" fill="#6D6D6D" fill-opacity="0.8"/>
</g>
</g>
<mask id="mask20_241_821" style="mask-type:luminance" maskUnits="userSpaceOnUse" x="114" y="116" width="17" height="17">
<path d="M114.664 116.462H130.245V132.043H114.664V116.462Z" fill="white"/>
</mask>
<g mask="url(#mask20_241_821)">
<mask id="mask21_241_821" style="mask-type:luminance" maskUnits="userSpaceOnUse" x="114" y="116" width="17" height="17">
<path d="M122.456 116.462C118.153 116.462 114.664 119.952 114.664 124.255C114.664 128.558 118.153 132.043 122.456 132.043C126.755 132.043 130.245 128.558 130.245 124.255C130.245 119.952 126.755 116.462 122.456 116.462Z" fill="white"/>
</mask>
<g mask="url(#mask21_241_821)">
<path d="M114.664 116.462H130.245V132.043H114.664V116.462Z" fill="#6D6D6D" fill-opacity="0.8"/>
</g>
</g>
<mask id="mask22_241_821" style="mask-type:luminance" maskUnits="userSpaceOnUse" x="114" y="84" width="17" height="16">
<path d="M114.664 84.0146H130.245V99.5956H114.664V84.0146Z" fill="white"/>
</mask>
<g mask="url(#mask22_241_821)">
<mask id="mask23_241_821" style="mask-type:luminance" maskUnits="userSpaceOnUse" x="114" y="84" width="17" height="16">
<path d="M122.456 84.0146C118.153 84.0146 114.664 87.5042 114.664 91.8031C114.664 96.106 118.153 99.5956 122.456 99.5956C126.755 99.5956 130.245 96.106 130.245 91.8031C130.245 87.5042 126.755 84.0146 122.456 84.0146Z" fill="white"/>
</mask>
<g mask="url(#mask23_241_821)">
<path d="M114.664 84.0146H130.245V99.5956H114.664V84.0146Z" fill="#6D6D6D" fill-opacity="0.8"/>
</g>
</g>
<mask id="mask24_241_821" style="mask-type:luminance" maskUnits="userSpaceOnUse" x="114" y="50" width="17" height="16">
<path d="M114.664 50.2524H130.245V65.8334H114.664V50.2524Z" fill="white"/>
</mask>
<g mask="url(#mask24_241_821)">
<mask id="mask25_241_821" style="mask-type:luminance" maskUnits="userSpaceOnUse" x="114" y="50" width="17" height="16">
<path d="M122.456 50.2524C118.153 50.2524 114.664 53.738 114.664 58.0409C114.664 62.3438 118.153 65.8334 122.456 65.8334C126.755 65.8334 130.245 62.3438 130.245 58.0409C130.245 53.738 126.755 50.2524 122.456 50.2524Z" fill="white"/>
</mask>
<g mask="url(#mask25_241_821)">
<path d="M114.664 50.2524H130.245V65.8334H114.664V50.2524Z" fill="#6D6D6D" fill-opacity="0.8"/>
</g>
</g>
<mask id="mask26_241_821" style="mask-type:luminance" maskUnits="userSpaceOnUse" x="114" y="17" width="17" height="16">
<path d="M114.664 17.0391H130.245V32.62H114.664V17.0391Z" fill="white"/>
</mask>
<g mask="url(#mask26_241_821)">
<mask id="mask27_241_821" style="mask-type:luminance" maskUnits="userSpaceOnUse" x="114" y="17" width="17" height="16">
<path d="M122.456 17.0391C118.153 17.0391 114.664 20.5286 114.664 24.8315C114.664 29.1344 118.153 32.62 122.456 32.62C126.755 32.62 130.245 29.1344 130.245 24.8315C130.245 20.5286 126.755 17.0391 122.456 17.0391Z" fill="white"/>
</mask>
<g mask="url(#mask27_241_821)">
<path d="M114.664 17.0391H130.245V32.62H114.664V17.0391Z" fill="#6D6D6D" fill-opacity="0.8"/>
</g>
</g>
<mask id="mask28_241_821" style="mask-type:luminance" maskUnits="userSpaceOnUse" x="81" y="17" width="17" height="16">
<path d="M81.4824 17.0391H97.0634V32.62H81.4824V17.0391Z" fill="white"/>
</mask>
<g mask="url(#mask28_241_821)">
<mask id="mask29_241_821" style="mask-type:luminance" maskUnits="userSpaceOnUse" x="81" y="17" width="17" height="16">
<path d="M89.2709 17.0391C84.968 17.0391 81.4824 20.5286 81.4824 24.8315C81.4824 29.1344 84.968 32.62 89.2709 32.62C93.5738 32.62 97.0634 29.1344 97.0634 24.8315C97.0634 20.5286 93.5738 17.0391 89.2709 17.0391Z" fill="white"/>
</mask>
<g mask="url(#mask29_241_821)">
<path d="M81.4824 17.0391H97.0634V32.62H81.4824V17.0391Z" fill="#6D6D6D" fill-opacity="0.8"/>
</g>
</g>
<mask id="mask30_241_821" style="mask-type:luminance" maskUnits="userSpaceOnUse" x="48" y="17" width="16" height="16">
<path d="M48.3013 17.0874H63.8822V32.6683H48.3013V17.0874Z" fill="white"/>
</mask>
<g mask="url(#mask30_241_821)">
<mask id="mask31_241_821" style="mask-type:luminance" maskUnits="userSpaceOnUse" x="48" y="17" width="16" height="16">
<path d="M56.0897 17.0874C51.7868 17.0874 48.3013 20.577 48.3013 24.8799C48.3013 29.1828 51.7868 32.6683 56.0897 32.6683C60.3926 32.6683 63.8822 29.1828 63.8822 24.8799C63.8822 20.577 60.3926 17.0874 56.0897 17.0874Z" fill="white"/>
</mask>
<g mask="url(#mask31_241_821)">
<path d="M48.3013 17.0874H63.8822V32.6683H48.3013V17.0874Z" fill="#6D6D6D" fill-opacity="0.8"/>
</g>
</g>
</svg>
