<svg width="1000" height="400" viewBox="0 0 1000 400" fill="none" xmlns="http://www.w3.org/2000/svg">
<g clip-path="url(#clip0_241_2)">
<path d="M90.4234 271.8C73.0901 271.8 59.3568 267 49.2234 257.4C39.0901 247.667 34.0234 233.8 34.0234 215.8V182.2C34.0234 164.2 39.0901 150.4 49.2234 140.8C59.3568 131.067 73.0901 126.2 90.4234 126.2C107.623 126.2 120.89 130.933 130.223 140.4C139.69 149.733 144.423 162.6 144.423 179V180.2H118.423V178.2C118.423 169.933 116.09 163.133 111.423 157.8C106.89 152.467 99.8901 149.8 90.4234 149.8C81.0901 149.8 73.7568 152.667 68.4234 158.4C63.0901 164.133 60.4234 171.933 60.4234 181.8V216.2C60.4234 225.933 63.0901 233.733 68.4234 239.6C73.7568 245.333 81.0901 248.2 90.4234 248.2C99.8901 248.2 106.89 245.533 111.423 240.2C116.09 234.733 118.423 227.933 118.423 219.8V216.2H144.423V219C144.423 235.4 139.69 248.333 130.223 257.8C120.89 267.133 107.623 271.8 90.4234 271.8ZM165.934 269V129H226.734C235.534 129 243.201 130.533 249.734 133.6C256.268 136.667 261.334 141 264.934 146.6C268.534 152.2 270.334 158.8 270.334 166.4V168.8C270.334 177.2 268.334 184 264.334 189.2C260.334 194.4 255.401 198.2 249.534 200.6V204.2C254.868 204.467 259.001 206.333 261.934 209.8C264.868 213.133 266.334 217.6 266.334 223.2V269H239.934V227C239.934 223.8 239.068 221.2 237.334 219.2C235.734 217.2 233.001 216.2 229.134 216.2H192.334V269H165.934ZM192.334 192.2H223.934C230.201 192.2 235.068 190.533 238.534 187.2C242.134 183.733 243.934 179.2 243.934 173.6V171.6C243.934 166 242.201 161.533 238.734 158.2C235.268 154.733 230.334 153 223.934 153H192.334V192.2ZM346.702 271.8C329.102 271.8 315.102 267 304.702 257.4C294.302 247.667 289.102 233.8 289.102 215.8V182.2C289.102 164.2 294.302 150.4 304.702 140.8C315.102 131.067 329.102 126.2 346.702 126.2C364.302 126.2 378.302 131.067 388.702 140.8C399.102 150.4 404.302 164.2 404.302 182.2V215.8C404.302 233.8 399.102 247.667 388.702 257.4C378.302 267 364.302 271.8 346.702 271.8ZM346.702 248.2C356.568 248.2 364.235 245.333 369.702 239.6C375.168 233.867 377.902 226.2 377.902 216.6V181.4C377.902 171.8 375.168 164.133 369.702 158.4C364.235 152.667 356.568 149.8 346.702 149.8C336.968 149.8 329.302 152.667 323.702 158.4C318.235 164.133 315.502 171.8 315.502 181.4V216.6C315.502 226.2 318.235 233.867 323.702 239.6C329.302 245.333 336.968 248.2 346.702 248.2ZM476.058 271.8C465.258 271.8 455.724 269.867 447.458 266C439.191 262.133 432.724 256.6 428.058 249.4C423.391 242.2 421.058 233.533 421.058 223.4V217.8H447.058V223.4C447.058 231.8 449.658 238.133 454.858 242.4C460.058 246.533 467.124 248.6 476.058 248.6C485.124 248.6 491.858 246.8 496.258 243.2C500.791 239.6 503.058 235 503.058 229.4C503.058 225.533 501.924 222.4 499.658 220C497.524 217.6 494.324 215.667 490.058 214.2C485.924 212.6 480.858 211.133 474.858 209.8L470.258 208.8C460.658 206.667 452.391 204 445.458 200.8C438.658 197.467 433.391 193.133 429.658 187.8C426.058 182.467 424.258 175.533 424.258 167C424.258 158.467 426.258 151.2 430.258 145.2C434.391 139.067 440.124 134.4 447.458 131.2C454.924 127.867 463.658 126.2 473.658 126.2C483.658 126.2 492.524 127.933 500.258 131.4C508.124 134.733 514.258 139.8 518.658 146.6C523.191 153.267 525.458 161.667 525.458 171.8V177.8H499.458V171.8C499.458 166.467 498.391 162.2 496.258 159C494.258 155.667 491.324 153.267 487.458 151.8C483.591 150.2 478.991 149.4 473.658 149.4C465.658 149.4 459.724 150.933 455.858 154C452.124 156.933 450.258 161 450.258 166.2C450.258 169.667 451.124 172.6 452.858 175C454.724 177.4 457.458 179.4 461.058 181C464.658 182.6 469.258 184 474.858 185.2L479.458 186.2C489.458 188.333 498.124 191.067 505.458 194.4C512.924 197.733 518.724 202.133 522.858 207.6C526.991 213.067 529.058 220.067 529.058 228.6C529.058 237.133 526.858 244.667 522.458 251.2C518.191 257.6 512.058 262.667 504.058 266.4C496.191 270 486.858 271.8 476.058 271.8ZM597.347 271.8C586.547 271.8 577.014 269.867 568.747 266C560.48 262.133 554.014 256.6 549.347 249.4C544.68 242.2 542.347 233.533 542.347 223.4V217.8H568.347V223.4C568.347 231.8 570.947 238.133 576.147 242.4C581.347 246.533 588.414 248.6 597.347 248.6C606.414 248.6 613.147 246.8 617.547 243.2C622.08 239.6 624.347 235 624.347 229.4C624.347 225.533 623.214 222.4 620.947 220C618.814 217.6 615.614 215.667 611.347 214.2C607.214 212.6 602.147 211.133 596.147 209.8L591.547 208.8C581.947 206.667 573.68 204 566.747 200.8C559.947 197.467 554.68 193.133 550.947 187.8C547.347 182.467 545.547 175.533 545.547 167C545.547 158.467 547.547 151.2 551.547 145.2C555.68 139.067 561.414 134.4 568.747 131.2C576.214 127.867 584.947 126.2 594.947 126.2C604.947 126.2 613.814 127.933 621.547 131.4C629.414 134.733 635.547 139.8 639.947 146.6C644.48 153.267 646.747 161.667 646.747 171.8V177.8H620.747V171.8C620.747 166.467 619.68 162.2 617.547 159C615.547 155.667 612.614 153.267 608.747 151.8C604.88 150.2 600.28 149.4 594.947 149.4C586.947 149.4 581.014 150.933 577.147 154C573.414 156.933 571.547 161 571.547 166.2C571.547 169.667 572.414 172.6 574.147 175C576.014 177.4 578.747 179.4 582.347 181C585.947 182.6 590.547 184 596.147 185.2L600.747 186.2C610.747 188.333 619.414 191.067 626.747 194.4C634.214 197.733 640.014 202.133 644.147 207.6C648.28 213.067 650.347 220.067 650.347 228.6C650.347 237.133 648.147 244.667 643.747 251.2C639.48 257.6 633.347 262.667 625.347 266.4C617.48 270 608.147 271.8 597.347 271.8ZM670.036 269V129H696.436V269H670.036ZM722.77 269V129H772.97L800.77 251H804.37V129H830.37V269H780.17L752.37 147H748.77V269H722.77ZM905.155 271.8C895.555 271.8 886.821 269.667 878.955 265.4C871.221 261 865.021 254.667 860.355 246.4C855.821 238 853.555 227.8 853.555 215.8V182.2C853.555 164.2 858.621 150.4 868.755 140.8C878.888 131.067 892.621 126.2 909.955 126.2C927.155 126.2 940.421 130.8 949.755 140C959.221 149.067 963.955 161.4 963.955 177V177.8H937.955V176.2C937.955 171.267 936.888 166.8 934.755 162.8C932.755 158.8 929.688 155.667 925.555 153.4C921.421 151 916.221 149.8 909.955 149.8C900.621 149.8 893.288 152.667 887.955 158.4C882.621 164.133 879.955 171.933 879.955 181.8V216.2C879.955 225.933 882.621 233.8 887.955 239.8C893.288 245.667 900.755 248.6 910.355 248.6C919.955 248.6 926.955 246.067 931.355 241C935.755 235.933 937.955 229.533 937.955 221.8V219.8H904.755V197.4H963.955V269H939.555V255.6H935.955C935.021 257.867 933.488 260.267 931.355 262.8C929.355 265.333 926.288 267.467 922.155 269.2C918.021 270.933 912.355 271.8 905.155 271.8Z" fill="#DDDDDD"/>
</g>
<defs>
<clipPath id="clip0_241_2">
<rect width="1000" height="400" fill="white"/>
</clipPath>
</defs>
</svg>
