<svg width="187" height="190" viewBox="0 0 187 190" fill="none" xmlns="http://www.w3.org/2000/svg">
<mask id="mask0_2203_207" style="mask-type:luminance" maskUnits="userSpaceOnUse" x="52" y="54" width="34" height="34">
<path d="M52.1079 54.9502H85.1092V87.9566H52.1079V54.9502Z" fill="white"/>
</mask>
<g mask="url(#mask0_2203_207)">
<mask id="mask1_2203_207" style="mask-type:luminance" maskUnits="userSpaceOnUse" x="52" y="54" width="34" height="34">
<path d="M68.606 54.9502C59.4917 54.9502 52.1079 62.3391 52.1079 71.4534C52.1079 80.5677 59.4917 87.9566 68.606 87.9566C77.7204 87.9566 85.1092 80.5677 85.1092 71.4534C85.1092 62.3391 77.7204 54.9502 68.606 54.9502Z" fill="white"/>
</mask>
<g mask="url(#mask1_2203_207)">
<path d="M52.1079 54.9502H85.1092V87.9566H52.1079V54.9502Z" fill="#F0F0F0"/>
</g>
</g>
<mask id="mask2_2203_207" style="mask-type:luminance" maskUnits="userSpaceOnUse" x="99" y="54" width="34" height="34">
<path d="M99.2375 54.9502H132.244V87.9566H99.2375V54.9502Z" fill="white"/>
</mask>
<g mask="url(#mask2_2203_207)">
<mask id="mask3_2203_207" style="mask-type:luminance" maskUnits="userSpaceOnUse" x="99" y="54" width="34" height="34">
<path d="M115.741 54.9502C106.626 54.9502 99.2375 62.3391 99.2375 71.4534C99.2375 80.5677 106.626 87.9566 115.741 87.9566C124.855 87.9566 132.244 80.5677 132.244 71.4534C132.244 62.3391 124.855 54.9502 115.741 54.9502Z" fill="white"/>
</mask>
<g mask="url(#mask3_2203_207)">
<path d="M99.2375 54.9502H132.244V87.9566H99.2375V54.9502Z" fill="#F0F0F0"/>
</g>
</g>
<mask id="mask4_2203_207" style="mask-type:luminance" maskUnits="userSpaceOnUse" x="52" y="101" width="34" height="34">
<path d="M52.1079 101.719H85.1092V134.725H52.1079V101.719Z" fill="white"/>
</mask>
<g mask="url(#mask4_2203_207)">
<mask id="mask5_2203_207" style="mask-type:luminance" maskUnits="userSpaceOnUse" x="52" y="101" width="34" height="34">
<path d="M68.606 101.719C59.4917 101.719 52.1079 109.108 52.1079 118.222C52.1079 127.336 59.4917 134.725 68.606 134.725C77.7204 134.725 85.1092 127.336 85.1092 118.222C85.1092 109.108 77.7204 101.719 68.606 101.719Z" fill="white"/>
</mask>
<g mask="url(#mask5_2203_207)">
<path d="M52.1079 101.719H85.1092V134.725H52.1079V101.719Z" fill="#F0F0F0"/>
</g>
</g>
<mask id="mask6_2203_207" style="mask-type:luminance" maskUnits="userSpaceOnUse" x="99" y="101" width="34" height="34">
<path d="M99.2375 101.719H132.244V134.725H99.2375V101.719Z" fill="white"/>
</mask>
<g mask="url(#mask6_2203_207)">
<mask id="mask7_2203_207" style="mask-type:luminance" maskUnits="userSpaceOnUse" x="99" y="101" width="34" height="34">
<path d="M115.741 101.719C106.626 101.719 99.2375 109.108 99.2375 118.222C99.2375 127.336 106.626 134.725 115.741 134.725C124.855 134.725 132.244 127.336 132.244 118.222C132.244 109.108 124.855 101.719 115.741 101.719Z" fill="white"/>
</mask>
<g mask="url(#mask7_2203_207)">
<path d="M99.2375 101.719H132.244V134.725H99.2375V101.719Z" fill="#F0F0F0"/>
</g>
</g>
<mask id="mask8_2203_207" style="mask-type:luminance" maskUnits="userSpaceOnUse" x="18" y="21" width="21" height="21">
<path d="M18.7261 21.583H38.4619V41.3189H18.7261V21.583Z" fill="white"/>
</mask>
<g mask="url(#mask8_2203_207)">
<mask id="mask9_2203_207" style="mask-type:luminance" maskUnits="userSpaceOnUse" x="18" y="21" width="21" height="21">
<path d="M28.5965 21.583C23.1462 21.583 18.7261 26.0031 18.7261 31.4535C18.7261 36.9038 23.1462 41.3189 28.5965 41.3189C34.0469 41.3189 38.4619 36.9038 38.4619 31.4535C38.4619 26.0031 34.0469 21.583 28.5965 21.583Z" fill="white"/>
</mask>
<g mask="url(#mask9_2203_207)">
<path d="M18.7261 21.583H38.4619V41.3189H18.7261V21.583Z" fill="#F0F0F0"/>
</g>
</g>
<mask id="mask10_2203_207" style="mask-type:luminance" maskUnits="userSpaceOnUse" x="18" y="64" width="21" height="21">
<path d="M18.7261 64.9678H38.4619V84.7087H18.7261V64.9678Z" fill="white"/>
</mask>
<g mask="url(#mask10_2203_207)">
<mask id="mask11_2203_207" style="mask-type:luminance" maskUnits="userSpaceOnUse" x="18" y="64" width="21" height="21">
<path d="M28.5965 64.9678C23.1462 64.9678 18.7261 69.3879 18.7261 74.8382C18.7261 80.2886 23.1462 84.7087 28.5965 84.7087C34.0469 84.7087 38.4619 80.2886 38.4619 74.8382C38.4619 69.3879 34.0469 64.9678 28.5965 64.9678Z" fill="white"/>
</mask>
<g mask="url(#mask11_2203_207)">
<path d="M18.7261 64.9678H38.4619V84.7087H18.7261V64.9678Z" fill="#F0F0F0"/>
</g>
</g>
<mask id="mask12_2203_207" style="mask-type:luminance" maskUnits="userSpaceOnUse" x="18" y="106" width="21" height="21">
<path d="M18.7261 106.418H38.4619V126.154H18.7261V106.418Z" fill="white"/>
</mask>
<g mask="url(#mask12_2203_207)">
<mask id="mask13_2203_207" style="mask-type:luminance" maskUnits="userSpaceOnUse" x="18" y="106" width="21" height="21">
<path d="M28.5965 106.418C23.1462 106.418 18.7261 110.838 18.7261 116.283C18.7261 121.734 23.1462 126.154 28.5965 126.154C34.0469 126.154 38.4619 121.734 38.4619 116.283C38.4619 110.838 34.0469 106.418 28.5965 106.418Z" fill="white"/>
</mask>
<g mask="url(#mask13_2203_207)">
<path d="M18.7261 106.418H38.4619V126.154H18.7261V106.418Z" fill="#F0F0F0"/>
</g>
</g>
<mask id="mask14_2203_207" style="mask-type:luminance" maskUnits="userSpaceOnUse" x="18" y="147" width="21" height="21">
<path d="M18.7261 147.519H38.4619V167.254H18.7261V147.519Z" fill="white"/>
</mask>
<g mask="url(#mask14_2203_207)">
<mask id="mask15_2203_207" style="mask-type:luminance" maskUnits="userSpaceOnUse" x="18" y="147" width="21" height="21">
<path d="M28.5965 147.519C23.1462 147.519 18.7261 151.939 18.7261 157.389C18.7261 162.839 23.1462 167.254 28.5965 167.254C34.0469 167.254 38.4619 162.839 38.4619 157.389C38.4619 151.939 34.0469 147.519 28.5965 147.519Z" fill="white"/>
</mask>
<g mask="url(#mask15_2203_207)">
<path d="M18.7261 147.519H38.4619V167.254H18.7261V147.519Z" fill="#F0F0F0"/>
</g>
</g>
<mask id="mask16_2203_207" style="mask-type:luminance" maskUnits="userSpaceOnUse" x="61" y="147" width="20" height="21">
<path d="M61.1816 147.519H80.9175V167.254H61.1816V147.519Z" fill="white"/>
</mask>
<g mask="url(#mask16_2203_207)">
<mask id="mask17_2203_207" style="mask-type:luminance" maskUnits="userSpaceOnUse" x="61" y="147" width="20" height="21">
<path d="M71.047 147.519C65.5967 147.519 61.1816 151.939 61.1816 157.389C61.1816 162.839 65.5967 167.254 71.047 167.254C76.4973 167.254 80.9175 162.839 80.9175 157.389C80.9175 151.939 76.4973 147.519 71.047 147.519Z" fill="white"/>
</mask>
<g mask="url(#mask17_2203_207)">
<path d="M61.1816 147.519H80.9175V167.254H61.1816V147.519Z" fill="#F0F0F0"/>
</g>
</g>
<mask id="mask18_2203_207" style="mask-type:luminance" maskUnits="userSpaceOnUse" x="103" y="147" width="20" height="21">
<path d="M103.211 147.519H122.947V167.254H103.211V147.519Z" fill="white"/>
</mask>
<g mask="url(#mask18_2203_207)">
<mask id="mask19_2203_207" style="mask-type:luminance" maskUnits="userSpaceOnUse" x="103" y="147" width="20" height="21">
<path d="M113.076 147.519C107.626 147.519 103.211 151.939 103.211 157.389C103.211 162.839 107.626 167.254 113.076 167.254C118.527 167.254 122.947 162.839 122.947 157.389C122.947 151.939 118.527 147.519 113.076 147.519Z" fill="white"/>
</mask>
<g mask="url(#mask19_2203_207)">
<path d="M103.211 147.519H122.947V167.254H103.211V147.519Z" fill="#F0F0F0"/>
</g>
</g>
<mask id="mask20_2203_207" style="mask-type:luminance" maskUnits="userSpaceOnUse" x="145" y="147" width="20" height="21">
<path d="M145.24 147.519H164.976V167.254H145.24V147.519Z" fill="white"/>
</mask>
<g mask="url(#mask20_2203_207)">
<mask id="mask21_2203_207" style="mask-type:luminance" maskUnits="userSpaceOnUse" x="145" y="147" width="20" height="21">
<path d="M155.111 147.519C149.66 147.519 145.24 151.939 145.24 157.389C145.24 162.839 149.66 167.254 155.111 167.254C160.556 167.254 164.976 162.839 164.976 157.389C164.976 151.939 160.556 147.519 155.111 147.519Z" fill="white"/>
</mask>
<g mask="url(#mask21_2203_207)">
<path d="M145.24 147.519H164.976V167.254H145.24V147.519Z" fill="#F0F0F0"/>
</g>
</g>
<mask id="mask22_2203_207" style="mask-type:luminance" maskUnits="userSpaceOnUse" x="145" y="106" width="20" height="21">
<path d="M145.24 106.418H164.976V126.154H145.24V106.418Z" fill="white"/>
</mask>
<g mask="url(#mask22_2203_207)">
<mask id="mask23_2203_207" style="mask-type:luminance" maskUnits="userSpaceOnUse" x="145" y="106" width="20" height="21">
<path d="M155.111 106.418C149.66 106.418 145.24 110.838 145.24 116.283C145.24 121.734 149.66 126.154 155.111 126.154C160.556 126.154 164.976 121.734 164.976 116.283C164.976 110.838 160.556 106.418 155.111 106.418Z" fill="white"/>
</mask>
<g mask="url(#mask23_2203_207)">
<path d="M145.24 106.418H164.976V126.154H145.24V106.418Z" fill="#F0F0F0"/>
</g>
</g>
<mask id="mask24_2203_207" style="mask-type:luminance" maskUnits="userSpaceOnUse" x="145" y="63" width="20" height="21">
<path d="M145.24 63.6533H164.976V83.3892H145.24V63.6533Z" fill="white"/>
</mask>
<g mask="url(#mask24_2203_207)">
<mask id="mask25_2203_207" style="mask-type:luminance" maskUnits="userSpaceOnUse" x="145" y="63" width="20" height="21">
<path d="M155.111 63.6533C149.66 63.6533 145.24 68.0684 145.24 73.5187C145.24 78.969 149.66 83.3892 155.111 83.3892C160.556 83.3892 164.976 78.969 164.976 73.5187C164.976 68.0684 160.556 63.6533 155.111 63.6533Z" fill="white"/>
</mask>
<g mask="url(#mask25_2203_207)">
<path d="M145.24 63.6533H164.976V83.3892H145.24V63.6533Z" fill="#F0F0F0"/>
</g>
</g>
<mask id="mask26_2203_207" style="mask-type:luminance" maskUnits="userSpaceOnUse" x="145" y="21" width="20" height="21">
<path d="M145.24 21.583H164.976V41.3189H145.24V21.583Z" fill="white"/>
</mask>
<g mask="url(#mask26_2203_207)">
<mask id="mask27_2203_207" style="mask-type:luminance" maskUnits="userSpaceOnUse" x="145" y="21" width="20" height="21">
<path d="M155.111 21.583C149.66 21.583 145.24 26.0031 145.24 31.4535C145.24 36.9038 149.66 41.3189 155.111 41.3189C160.556 41.3189 164.976 36.9038 164.976 31.4535C164.976 26.0031 160.556 21.583 155.111 21.583Z" fill="white"/>
</mask>
<g mask="url(#mask27_2203_207)">
<path d="M145.24 21.583H164.976V41.3189H145.24V21.583Z" fill="#F0F0F0"/>
</g>
</g>
<mask id="mask28_2203_207" style="mask-type:luminance" maskUnits="userSpaceOnUse" x="103" y="21" width="20" height="21">
<path d="M103.211 21.583H122.947V41.3189H103.211V21.583Z" fill="white"/>
</mask>
<g mask="url(#mask28_2203_207)">
<mask id="mask29_2203_207" style="mask-type:luminance" maskUnits="userSpaceOnUse" x="103" y="21" width="20" height="21">
<path d="M113.076 21.583C107.626 21.583 103.211 26.0031 103.211 31.4535C103.211 36.9038 107.626 41.3189 113.076 41.3189C118.527 41.3189 122.947 36.9038 122.947 31.4535C122.947 26.0031 118.527 21.583 113.076 21.583Z" fill="white"/>
</mask>
<g mask="url(#mask29_2203_207)">
<path d="M103.211 21.583H122.947V41.3189H103.211V21.583Z" fill="#F0F0F0"/>
</g>
</g>
<mask id="mask30_2203_207" style="mask-type:luminance" maskUnits="userSpaceOnUse" x="61" y="21" width="20" height="21">
<path d="M61.1816 21.6436H80.9175V41.3794H61.1816V21.6436Z" fill="white"/>
</mask>
<g mask="url(#mask30_2203_207)">
<mask id="mask31_2203_207" style="mask-type:luminance" maskUnits="userSpaceOnUse" x="61" y="21" width="20" height="21">
<path d="M71.047 21.6436C65.5967 21.6436 61.1816 26.0637 61.1816 31.514C61.1816 36.9643 65.5967 41.3794 71.047 41.3794C76.4973 41.3794 80.9175 36.9643 80.9175 31.514C80.9175 26.0637 76.4973 21.6436 71.047 21.6436Z" fill="white"/>
</mask>
<g mask="url(#mask31_2203_207)">
<path d="M61.1816 21.6436H80.9175V41.3794H61.1816V21.6436Z" fill="#F0F0F0"/>
</g>
</g>
</svg>
